# xmcd
#
# Track frame offsets:
#	150
#	14641
#	32603
#	50740
#	71590
#	86337
#	102180
#	117121
#	138914
#	155256
#	177295
#	193367
#
# Disc length: 2871 seconds
#
# Revision: 1
# Processed by: cddbd v1.4PL0 Copyright (c) Steve Scherf et al.
# Submitted via: CDmax 1.9
#
DISCID=9f0b350c
DTITLE=Wynonna - The Other Side
DYEAR=1997
DGENRE=Country
TTITLE0=When Love Starts Talkin'
TTITLE1=Other Side, The
TTITLE2=Love Like That
TTITLE3=Kind Of Fool Love Makes, The
TTITLE4=Troubled Heart And A Troubled Mind
TTITLE5=Don't You Throw That Mojo On Me - (with Naomi Judd/Kenny Wayne Shepher
TTITLE5=d)
TTITLE6=Come Some Rainy Day
TTITLE7=Love's Funny That Way
TTITLE8=Wyld Unknown, The
TTITLE9=Why Now
TTITLE10=We Can't Unmake Love - (with John Berry)
TTITLE11=Always Will
EXTD=
EXTT0=
EXTT1=
EXTT2=
EXTT3=
EXTT4=
EXTT5=
EXTT6=
EXTT7=
EXTT8=
EXTT9=
EXTT10=
EXTT11=
PLAYORDER=
